<svg width="26" height="24" viewBox="0 0 26 24" fill="none" xmlns="http://www.w3.org/2000/svg">
<path d="M13 22V18" stroke="#620FD8" stroke-width="2" stroke-linecap="round" stroke-linejoin="round"/>
<path d="M17.5 8.98278H22.286C23.2547 8.98278 23.6575 10.2224 22.8738 10.7918L18.3103 14.1074C17.9598 14.362 17.8131 14.8134 17.947 15.2254L19.6901 20.5902C19.9895 21.5115 18.935 22.2776 18.1513 21.7082L13 17.9656M15.2744 7L13.951 2.92705C13.6517 2.00574 12.3483 2.00574 12.0489 2.92705L10.3058 8.2918C10.1719 8.70382 9.78797 8.98278 9.35474 8.98278H3.71391C2.74519 8.98278 2.34242 10.2224 3.12613 10.7918L7.68965 14.1074C8.04014 14.362 8.1868 14.8134 8.05292 15.2254L6.30981 20.5902C6.01046 21.5115 7.06494 22.2776 7.84865 21.7082L9.17936 20.7414" stroke="#0BC4FF" stroke-width="2" stroke-linecap="round" stroke-linejoin="round"/>
</svg>
